<svg width="21" height="20" viewBox="0 0 21 20" fill="none" xmlns="http://www.w3.org/2000/svg">
<g id="bookmark">
<mask id="mask0_133_27133" style="mask-type:alpha" maskUnits="userSpaceOnUse" x="0" y="0" width="21" height="20">
<rect id="Bounding box" x="0.625" width="20" height="20" fill="#D9D9D9"/>
</mask>
<g mask="url(#mask0_133_27133)">
<path id="bookmark_2" d="M5.20825 16.8753V4.42341C5.20825 4.00247 5.35409 3.64616 5.64575 3.35449C5.93742 3.06283 6.29372 2.91699 6.71467 2.91699H14.5351C14.9561 2.91699 15.3124 3.06283 15.604 3.35449C15.8957 3.64616 16.0415 4.00247 16.0415 4.42341V16.8753L10.6249 14.5516L5.20825 16.8753ZM6.45823 14.9586L10.6249 13.167L14.7916 14.9586V4.42341C14.7916 4.3593 14.7649 4.30053 14.7114 4.2471C14.658 4.19368 14.5992 4.16697 14.5351 4.16697H6.71467C6.65056 4.16697 6.59179 4.19368 6.53836 4.2471C6.48494 4.30053 6.45823 4.3593 6.45823 4.42341V14.9586Z" fill="#323927"/>
</g>
</g>
</svg>
