<svg width="21" height="20" viewBox="0 0 21 20" fill="none" xmlns="http://www.w3.org/2000/svg">
<g id="bookmark">
<mask id="mask0_460_23933" style="mask-type:alpha" maskUnits="userSpaceOnUse" x="0" y="0" width="21" height="20">
<rect id="Bounding box" x="0.375" width="20" height="20" fill="#D9D9D9"/>
</mask>
<g mask="url(#mask0_460_23933)">
<path id="bookmark_2" d="M4.95837 16.8748V4.42292C4.95837 4.00198 5.10421 3.64567 5.39587 3.354C5.68754 3.06234 6.04385 2.9165 6.46479 2.9165H14.2852C14.7062 2.9165 15.0625 3.06234 15.3542 3.354C15.6458 3.64567 15.7917 4.00198 15.7917 4.42292V16.8748L10.375 14.5511L4.95837 16.8748ZM6.20835 14.9581L10.375 13.1665L14.5417 14.9581V4.42292C14.5417 4.35881 14.515 4.30004 14.4616 4.24661C14.4081 4.19319 14.3494 4.16648 14.2852 4.16648H6.46479C6.40068 4.16648 6.34191 4.19319 6.28848 4.24661C6.23506 4.30004 6.20835 4.35881 6.20835 4.42292V14.9581Z" fill="#93968B"/>
</g>
</g>
</svg>
