<svg width="21" height="20" viewBox="0 0 21 20" fill="none" xmlns="http://www.w3.org/2000/svg">
<g id="person">
<mask id="mask0_460_23939" style="mask-type:alpha" maskUnits="userSpaceOnUse" x="0" y="0" width="21" height="20">
<rect id="Bounding box" x="0.875" width="20" height="20" fill="#D9D9D9"/>
</mask>
<g mask="url(#mask0_460_23939)">
<path id="person_2" d="M10.875 9.74343C10.0729 9.74343 9.38628 9.45784 8.8151 8.88668C8.24392 8.3155 7.95833 7.62887 7.95833 6.8268C7.95833 6.02472 8.24392 5.33809 8.8151 4.76693C9.38628 4.19575 10.0729 3.91016 10.875 3.91016C11.677 3.91016 12.3637 4.19575 12.9349 4.76693C13.506 5.33809 13.7916 6.02472 13.7916 6.8268C13.7916 7.62887 13.506 8.3155 12.9349 8.88668C12.3637 9.45784 11.677 9.74343 10.875 9.74343ZM4.625 16.0896V14.237C4.625 13.8289 4.73585 13.451 4.95754 13.1032C5.17922 12.7555 5.47542 12.4881 5.84615 12.3012C6.66987 11.8973 7.5008 11.5944 8.33894 11.3925C9.17708 11.1906 10.0224 11.0896 10.875 11.0896C11.7275 11.0896 12.5729 11.1906 13.411 11.3925C14.2492 11.5944 15.0801 11.8973 15.9038 12.3012C16.2745 12.4881 16.5707 12.7555 16.7924 13.1032C17.0141 13.451 17.125 13.8289 17.125 14.237V16.0896H4.625ZM5.87498 14.8396H15.875V14.237C15.875 14.0682 15.8261 13.912 15.7283 13.7683C15.6306 13.6246 15.4978 13.5073 15.3301 13.4165C14.6122 13.0629 13.8801 12.795 13.1339 12.6128C12.3877 12.4307 11.6347 12.3396 10.875 12.3396C10.1152 12.3396 9.36226 12.4307 8.61606 12.6128C7.86987 12.795 7.1378 13.0629 6.41985 13.4165C6.25212 13.5073 6.11937 13.6246 6.02162 13.7683C5.92386 13.912 5.87498 14.0682 5.87498 14.237V14.8396ZM10.875 8.49347C11.3333 8.49347 11.7257 8.33028 12.0521 8.00389C12.3785 7.6775 12.5416 7.28514 12.5416 6.8268C12.5416 6.36847 12.3785 5.97611 12.0521 5.64972C11.7257 5.32333 11.3333 5.16014 10.875 5.16014C10.4166 5.16014 10.0243 5.32333 9.6979 5.64972C9.37151 5.97611 9.20831 6.36847 9.20831 6.8268C9.20831 7.28514 9.37151 7.6775 9.6979 8.00389C10.0243 8.33028 10.4166 8.49347 10.875 8.49347Z" fill="#93968B"/>
</g>
</g>
</svg>
