<svg width="20" height="20" viewBox="0 0 20 20" fill="none" xmlns="http://www.w3.org/2000/svg">
<g id="straighten">
<mask id="mask0_133_26212" style="mask-type:alpha" maskUnits="userSpaceOnUse" x="0" y="0" width="20" height="20">
<rect id="Bounding box" width="20" height="20" fill="#D9D9D9"/>
</mask>
<g mask="url(#mask0_133_26212)">
<path id="straighten_2" d="M5.20507 13.3333C4.86832 13.3333 4.58327 13.2166 4.34994 12.9833C4.11661 12.75 3.99994 12.4649 3.99994 12.1282V7.20513C3.99994 6.86838 4.11661 6.58333 4.34994 6.35C4.58327 6.11667 4.86832 6 5.20507 6H15.4614C15.7982 6 16.0832 6.11667 16.3166 6.35C16.5499 6.58333 16.6666 6.86838 16.6666 7.20513V12.1282C16.6666 12.4649 16.5499 12.75 16.3166 12.9833C16.0832 13.2166 15.7982 13.3333 15.4614 13.3333H5.20507ZM5.20507 12.3333H15.4614C15.5127 12.3333 15.5597 12.312 15.6025 12.2692C15.6452 12.2265 15.6666 12.1795 15.6666 12.1282V7.20513C15.6666 7.15385 15.6452 7.10683 15.6025 7.06408C15.5597 7.02135 15.5127 6.99998 15.4614 6.99998H13.4999V9.41022H12.4999V6.99998H10.8332V9.41022H9.83327V6.99998H8.16657V9.41022H7.16661V6.99998H5.20507C5.15378 6.99998 5.10677 7.02135 5.06402 7.06408C5.02129 7.10683 4.99992 7.15385 4.99992 7.20513V12.1282C4.99992 12.1795 5.02129 12.2265 5.06402 12.2692C5.10677 12.312 5.15378 12.3333 5.20507 12.3333Z" fill="#323927"/>
</g>
</g>
</svg>
